<?xml version="1.0" encoding="utf-8"?>
<!-- Generator: Adobe Illustrator 15.0.0, SVG Export Plug-In . SVG Version: 6.00 Build 0)  -->
<!DOCTYPE svg PUBLIC "-//W3C//DTD SVG 1.1//EN" "http://www.w3.org/Graphics/SVG/1.1/DTD/svg11.dtd">
<svg version="1.1" id="Layer_1" xmlns="http://www.w3.org/2000/svg" xmlns:xlink="http://www.w3.org/1999/xlink" x="0px" y="0px"
	 width="600px" height="200px" viewBox="0 0 600 200" enable-background="new 0 0 600 200" xml:space="preserve">
<g id="Layer_3">
	<g>
		<text transform="matrix(1 0 0 1 258.4998 137)" font-family="'ExpoM-HM'" font-size="113">redis</text>
	</g>
</g>
<g>
	<path fill="#912626" d="M230.314,152.246c-11.542,6.017-71.337,30.603-84.068,37.237c-12.729,6.638-19.802,6.574-29.858,1.766
		c-10.056-4.807-73.689-30.51-85.151-35.988c-5.729-2.738-8.741-5.05-8.741-7.233v-21.862c0,0,82.841-18.034,96.215-22.832
		c13.374-4.798,18.014-4.972,29.395-0.803c11.381,4.17,79.434,16.447,90.683,20.568c0,0-0.005,19.525-0.005,21.553
		C238.785,146.813,236.189,149.184,230.314,152.246"/>
	<path fill="#C6302B" d="M230.309,130.513c-11.542,6.014-71.335,30.6-84.065,37.235c-12.729,6.638-19.801,6.574-29.857,1.766
		c-10.057-4.804-73.687-30.511-85.148-35.987c-11.462-5.479-11.703-9.25-0.443-13.658c11.259-4.41,74.54-29.237,87.915-34.036
		c13.373-4.796,18.013-4.971,29.393-0.801c11.382,4.169,70.818,27.827,82.065,31.946
		C241.42,121.101,241.852,124.496,230.309,130.513"/>
	<path fill="#912626" d="M230.314,116.871c-11.542,6.017-71.337,30.603-84.068,37.241c-12.729,6.634-19.802,6.57-29.858,1.762
		c-10.057-4.804-73.689-30.51-85.151-35.988c-5.729-2.738-8.741-5.047-8.741-7.23V90.791c0,0,82.841-18.034,96.215-22.833
		c13.374-4.797,18.014-4.972,29.395-0.803c11.381,4.169,79.434,16.446,90.683,20.566c0,0-0.005,19.526-0.005,21.556
		C238.785,111.438,236.189,113.809,230.314,116.871"/>
	<path fill="#C6302B" d="M230.309,95.138c-11.542,6.015-71.335,30.601-84.065,37.238c-12.729,6.636-19.801,6.571-29.857,1.764
		c-10.057-4.805-73.687-30.511-85.148-35.987c-11.462-5.478-11.703-9.249-0.443-13.66c11.259-4.407,74.54-29.236,87.915-34.034
		c13.373-4.797,18.013-4.971,29.393-0.801c11.382,4.168,70.818,27.824,82.065,31.945C241.42,85.725,241.852,89.121,230.309,95.138
		L230.309,95.138"/>
	<path fill="#912626" d="M230.314,80.184c-11.542,6.018-71.337,30.603-84.068,37.241c-12.729,6.637-19.802,6.571-29.858,1.765
		c-10.057-4.806-73.689-30.512-85.151-35.989c-5.729-2.739-8.741-5.048-8.741-7.229V54.105c0,0,82.841-18.033,96.215-22.831
		c13.374-4.798,18.014-4.971,29.395-0.803c11.381,4.17,79.434,16.446,90.683,20.566c0,0-0.005,19.526-0.005,21.555
		C238.785,74.751,236.189,77.122,230.314,80.184"/>
	<path fill="#C6302B" d="M230.309,58.451c-11.542,6.016-71.335,30.602-84.065,37.239c-12.729,6.636-19.801,6.57-29.857,1.765
		c-10.056-4.806-73.687-30.511-85.148-35.988c-11.462-5.478-11.703-9.25-0.443-13.66c11.259-4.409,74.54-29.235,87.915-34.034
		c13.373-4.798,18.013-4.97,29.393-0.801c11.382,4.17,70.818,27.826,82.065,31.946C241.42,49.038,241.852,52.435,230.309,58.451"/>
	<path fill="#FFFFFF" d="M157.073,37.183l-18.596,1.931l-4.164,10.017l-6.724-11.178l-21.473-1.93l16.022-5.778l-4.807-8.87
		l15,5.867l14.142-4.63l-3.822,9.172L157.073,37.183"/>
	<path fill="#FFFFFF" d="M133.203,85.779L98.497,71.385l49.732-7.633L133.203,85.779"/>
	<path fill="#FFFFFF" d="M85.086,42.75c14.681,0,26.581,4.613,26.581,10.303c0,5.69-11.9,10.303-26.581,10.303
		c-14.679,0-26.58-4.613-26.58-10.303C58.506,47.364,70.407,42.75,85.086,42.75"/>
	<path fill="#621B1C" d="M179.05,39.92l29.433,11.631l-29.408,11.62L179.05,39.92"/>
	<path fill="#9A2928" d="M146.488,52.801L179.05,39.92l0.024,23.251l-3.192,1.249L146.488,52.801"/>
</g>
</svg>
