<?xml version="1.0" encoding="utf-8"?>
<!-- Generator: Adobe Illustrator 15.0.0, SVG Export Plug-In . SVG Version: 6.00 Build 0)  -->
<!DOCTYPE svg PUBLIC "-//W3C//DTD SVG 1.1//EN" "http://www.w3.org/Graphics/SVG/1.1/DTD/svg11.dtd">
<svg version="1.1" id="Layer_1" xmlns="http://www.w3.org/2000/svg" xmlns:xlink="http://www.w3.org/1999/xlink" x="0px" y="0px"
	 width="600px" height="200px" viewBox="0 0 600 200" enable-background="new 0 0 600 200" xml:space="preserve">
<g>
	<polygon fill="#B3115B" points="104.063,2.037 53.393,51.526 154.719,51.526 154.719,2.037 	"/>
	<polygon fill="#F7CC61" points="154.719,150.51 205.376,101.018 205.376,51.526 154.719,51.526 	"/>
	<polygon points="53.393,150.51 53.393,200 104.063,200 154.719,150.51 	"/>
	<polygon points="2.752,101.018 2.752,150.51 53.393,150.51 53.393,51.526 	"/>
	<rect x="154.719" y="2.037" width="50.657" height="49.489"/>
	<rect x="2.752" y="150.51" fill="#66C7EE" width="50.653" height="49.49"/>
	<text transform="matrix(1 0 0 1 233.4377 80.5908)" fill="#EC6C42" font-family="'LeelawadeeUI'" font-size="107.5071">C</text>
	<text transform="matrix(1 0 0 1 300.0002 80.5908)" font-family="'LeelawadeeUI'" font-size="107.5071">ontext</text>
	<text transform="matrix(1 0 0 1 237.7385 175.252)" fill="#FCE40B" font-family="'LeelawadeeUI'" font-size="107.5071">B</text>
	<text transform="matrix(1 0 0 1 299.3674 175.252)" font-family="'LeelawadeeUI'" font-size="107.5071">roker</text>
</g>
</svg>
