<svg id="_02" data-name="02" xmlns="http://www.w3.org/2000/svg" viewBox="0 0 510 138"><defs>
<style>.cls-1{fill:#f1df36;}.cls-2{fill:#faaf42;}.cls-3{fill:#9ad7ec;}.cls-4{fill:#08b1d5;}.cls-5{fill:#f69421;}.cls-6{fill:#1180c4;}.cls-7{fill:#464547;}</style></defs>
	<title>logo_ContextBroker</title>
	<polygon fill="#B3115B" points="74.658,-13.07 27.527,32.964 121.778,32.964 121.778,-13.07 	"/>
	<polygon fill="#F7CC61" points="121.778,125.035 168.896,79 168.896,32.964 121.778,32.964 	"/>
	<polygon points="27.527,125.035 27.527,171.07 74.658,171.07 121.778,125.035 	"/>
	<polygon points="-19.578,79 -19.578,125.035 27.527,125.035 27.527,32.964 	"/>
	<rect x="121.778" y="-13.07" width="47.118" height="46.034"/>
	<rect x="-19.578" y="125.035" fill="#66C7EE" width="47.118" height="46.035"/>
	<text transform="matrix(1 0 0 1 194.9998 60)" fill="#EC6C42" font-family="'LeelawadeeUI'" font-size="100">C</text>
	<text transform="matrix(1 0 0 1 256.9143 60)" font-family="'LeelawadeeUI'" font-size="100">ontext</text>
	<text transform="matrix(1 0 0 1 198.9998 148.0527)" fill="#FCE40B" font-family="'LeelawadeeUI'" font-size="100">B</text>
	<text transform="matrix(1 0 0 1 256.3245 148.0527)" font-family="'LeelawadeeUI'" font-size="100">roker</text>
</svg>
