<?xml version="1.0" encoding="utf-8"?>
<!-- Generator: Adobe Illustrator 15.0.0, SVG Export Plug-In . SVG Version: 6.00 Build 0)  -->
<!DOCTYPE svg PUBLIC "-//W3C//DTD SVG 1.1//EN" "http://www.w3.org/Graphics/SVG/1.1/DTD/svg11.dtd">
<svg version="1.1" id="_02" xmlns="http://www.w3.org/2000/svg" xmlns:xlink="http://www.w3.org/1999/xlink" x="0px" y="0px"
	 width="612px" height="792px" viewBox="0 0 612 792" enable-background="new 0 0 612 792" xml:space="preserve">
<title>logo_aqua</title>
<polygon fill="#B3115B" points="95.658,303.929 48.527,349.964 142.778,349.964 142.778,303.929 "/>
<polygon fill="#F7CC61" points="142.778,442.035 189.896,396 189.896,349.964 142.778,349.964 "/>
<polygon points="48.527,442.035 48.527,488.07 95.658,488.07 142.778,442.035 "/>
<polygon points="1.422,396 1.422,442.035 48.527,442.035 48.527,349.964 "/>
<rect x="142.778" y="303.929" width="47.118" height="46.035"/>
<rect x="1.422" y="442.035" fill="#66C7EE" width="47.118" height="46.035"/>
<text transform="matrix(1 0 0 1 216.0002 377)"><tspan x="0" y="0" fill="#EC6C42" font-family="'LeelawadeeUI'" font-size="100">C</tspan><tspan x="61.914" y="0" font-family="'LeelawadeeUI'" font-size="100">ontext</tspan></text>
<text transform="matrix(1 0 0 1 220.0002 465.0527)"><tspan x="0" y="0" fill="#FCE40B" font-family="'LeelawadeeUI'" font-size="100">B</tspan><tspan x="57.324" y="0" font-family="'LeelawadeeUI'" font-size="100">roker</tspan></text>
</svg>
