<?xml version="1.0" encoding="utf-8"?>
<!-- Generator: Adobe Illustrator 15.0.0, SVG Export Plug-In . SVG Version: 6.00 Build 0)  -->
<!DOCTYPE svg PUBLIC "-//W3C//DTD SVG 1.1//EN" "http://www.w3.org/Graphics/SVG/1.1/DTD/svg11.dtd">
<svg version="1.1" xmlns="http://www.w3.org/2000/svg" xmlns:xlink="http://www.w3.org/1999/xlink" x="0px" y="0px" width="612px"
	 height="600px" viewBox="0 0 612 792" enable-background="new 0 0 612 300" xml:space="preserve">
<g id="_02" display="none">
	<title>logo_aqua</title>
</g>
<g id="Layer_2">
	<polygon fill="#B3115B" points="100.658,309.929 53.527,355.964 147.778,355.964 147.778,309.929 	"/>
	<polygon fill="#F7CC61" points="147.778,448.035 194.896,402 194.896,355.964 147.778,355.964 	"/>
	<polygon points="53.527,448.035 53.527,494.07 100.658,494.07 147.778,448.035 	"/>
	<polygon points="6.422,402 6.422,448.035 53.527,448.035 53.527,355.964 	"/>
	<rect x="147.778" y="309.929" width="47.118" height="46.035"/>
	<rect x="6.422" y="448.035" fill="#66C7EE" width="47.118" height="46.035"/>
	<text transform="matrix(1 0 0 1 221.0002 383)"><tspan x="0" y="0" fill="#EC6C42" font-family="'LeelawadeeUI'" font-size="100">C</tspan><tspan x="61.914" y="0" font-family="'LeelawadeeUI'" font-size="100">ontext</tspan></text>
	<text transform="matrix(1 0 0 1 225.0002 471.0527)"><tspan x="0" y="0" fill="#FCE40B" font-family="'LeelawadeeUI'" font-size="100">B</tspan><tspan x="57.324" y="0" font-family="'LeelawadeeUI'" font-size="100">roker</tspan></text>
</g>
</svg>
